<svg xmlns="http://www.w3.org/2000/svg" viewBox="0 0 512 512" width="512" height="512">
  <rect width="512" height="512" rx="112" fill="#1DC3EC"/>
  <!-- Penguin Body -->
  <g transform="translate(256, 265)">
    <!-- Waving Left Flipper (Viewer Left) -->
    <path d="M-55 -40 C-85 -30 -115 15 -90 45 C-75 60 -50 30 -42 10 Z" fill="#111822"/>
    <!-- Feet -->
    <ellipse cx="-38" cy="118" rx="26" ry="14" fill="#F97316"/>
    <ellipse cx="38" cy="118" rx="26" ry="14" fill="#F97316"/>
    <!-- Main Body -->
    <path d="M-60 110 C-65 30 -60 -110 0 -110 C60 -110 65 30 60 110 C40 120 -40 120 -60 110 Z" fill="#111822"/>
    <!-- Right Flipper (Viewer Right) resting -->
    <path d="M50 -10 C75 15 75 65 52 85 C42 60 42 20 48 -10 Z" fill="#111822"/>
    <!-- White Belly -->
    <ellipse cx="0" cy="40" rx="36" ry="58" fill="#FFFFFF"/>
    <!-- Eyes -->
    <circle cx="-16" cy="-60" r="7" fill="#FFFFFF"/>
    <circle cx="16" cy="-60" r="7" fill="#FFFFFF"/>
    <!-- Orange Beak -->
    <path d="M-18 -42 Q0 -36 18 -42 Q0 -22 -18 -42 Z" fill="#F97316"/>
  </g>
</svg>